<svg xmlns="http://www.w3.org/2000/svg" viewBox="0 0 820 360">
<rect width="100%" height="100%" rx="14" fill="#0d1117"/>
<text x="35" y="32" fill="#f0c94b" font-family="Arial,sans-serif" font-size="18" font-weight="700">TOP LANGUAGES BY REPO</text>
<circle cx="250" cy="180" r="115" fill="none" stroke="#f1e05a" stroke-width="58" stroke-dasharray="411.23 311.34" stroke-dashoffset="0.00" transform="rotate(-90 250 180)"><title>JavaScript: 56.9%</title></circle><circle cx="250" cy="180" r="115" fill="none" stroke="#663399" stroke-width="58" stroke-dasharray="193.76 528.80" stroke-dashoffset="-411.23" transform="rotate(-90 250 180)"><title>CSS: 26.8%</title></circle><circle cx="250" cy="180" r="115" fill="none" stroke="#3572A5" stroke-width="58" stroke-dasharray="66.60 655.96" stroke-dashoffset="-604.99" transform="rotate(-90 250 180)"><title>Python: 9.2%</title></circle><circle cx="250" cy="180" r="115" fill="none" stroke="#e34c26" stroke-width="58" stroke-dasharray="47.68 674.88" stroke-dashoffset="-671.59" transform="rotate(-90 250 180)"><title>HTML: 6.6%</title></circle><circle cx="250" cy="180" r="115" fill="none" stroke="#3178c6" stroke-width="58" stroke-dasharray="2.19 720.38" stroke-dashoffset="-719.28" transform="rotate(-90 250 180)"><title>TypeScript: 0.3%</title></circle><circle cx="250" cy="180" r="115" fill="none" stroke="#b07219" stroke-width="58" stroke-dasharray="1.10 721.47" stroke-dashoffset="-721.47" transform="rotate(-90 250 180)"><title>Java: 0.2%</title></circle>
<text x="250" y="185" text-anchor="middle" fill="#f0c94b" font-family="Arial,sans-serif" font-size="20" font-weight="700">LANG</text>
<rect x="500" y="56" width="16" height="16" rx="2" fill="#f1e05a"/><text x="526" y="70" fill="#c9d1d9" font-family="Arial,sans-serif" font-size="15">JavaScript</text><text x="790" y="70" text-anchor="end" fill="#f0c94b" font-family="Arial,sans-serif" font-size="15" font-weight="700">56.9%</text><rect x="500" y="94" width="16" height="16" rx="2" fill="#663399"/><text x="526" y="108" fill="#c9d1d9" font-family="Arial,sans-serif" font-size="15">CSS</text><text x="790" y="108" text-anchor="end" fill="#f0c94b" font-family="Arial,sans-serif" font-size="15" font-weight="700">26.8%</text><rect x="500" y="132" width="16" height="16" rx="2" fill="#3572A5"/><text x="526" y="146" fill="#c9d1d9" font-family="Arial,sans-serif" font-size="15">Python</text><text x="790" y="146" text-anchor="end" fill="#f0c94b" font-family="Arial,sans-serif" font-size="15" font-weight="700">9.2%</text><rect x="500" y="170" width="16" height="16" rx="2" fill="#e34c26"/><text x="526" y="184" fill="#c9d1d9" font-family="Arial,sans-serif" font-size="15">HTML</text><text x="790" y="184" text-anchor="end" fill="#f0c94b" font-family="Arial,sans-serif" font-size="15" font-weight="700">6.6%</text><rect x="500" y="208" width="16" height="16" rx="2" fill="#3178c6"/><text x="526" y="222" fill="#c9d1d9" font-family="Arial,sans-serif" font-size="15">TypeScript</text><text x="790" y="222" text-anchor="end" fill="#f0c94b" font-family="Arial,sans-serif" font-size="15" font-weight="700">0.3%</text><rect x="500" y="246" width="16" height="16" rx="2" fill="#b07219"/><text x="526" y="260" fill="#c9d1d9" font-family="Arial,sans-serif" font-size="15">Java</text><text x="790" y="260" text-anchor="end" fill="#f0c94b" font-family="Arial,sans-serif" font-size="15" font-weight="700">0.2%</text>
</svg>